#!OML:ASF H:\Dans Jumps\Project 1\Capture day 1\Session 1\subject.ASF
:FULLY-SPECIFIED
:DEGREES
346
root 0.232068 23.5725 -7.25537 8.74006 1.00064 -1.12975
lowerback 6.94307 -1.30858 -3.08409
upperback 3.02311 -1.90152 2.38074
thorax -0.583739 -0.991741 4.33177
lowerneck -12.7843 1.17937 -1.10718
upperneck 30.4341 2.12674 -0.525049
head 12.1159 0.743685 0.289051
rclavicle 5.06901e-015 6.95746e-015
rhumerus -27.5049 -11.1876 -81.3079
rradius 25.9498
rwrist 30.5902
rhand -18.9039 -23.9119
rfingers 7.12502
rthumb 7.39789 -53.7626
lclavicle 5.06901e-015 6.95746e-015
lhumerus -13.0455 -10.0913 87.4388
lradius 22.9215
lwrist 21.0136
lhand -28.7278 -11.4361
lfingers 7.12502
lthumb -2.08878 18.5334
rfemur -34.3328 -8.26343 21.2268
rtibia 38.335
rfoot 16.7568 -4.54669
rtoes 17.3708
lfemur -31.3312 11.7769 -18.2025
ltibia 29.8424
lfoot 15.8733 -1.98718
ltoes 0.241591
347
root 0.229021 23.4932 -7.14637 8.58194 1.08695 -1.14291
lowerback 7.1134 -1.33695 -3.08123
upperback 3.06264 -1.94234 2.39902
thorax -0.632628 -1.01185 4.35685
lowerneck -12.8786 1.18639 -1.02747
upperneck 30.5943 2.13091 -0.559931
head 12.2015 0.747749 0.264166
rclavicle 2.4202e-014 -1.07344e-014
rhumerus -27.8441 -11.3313 -81.3643
rradius 25.7885
rwrist 30.7016
rhand -19.1046 -24.0661
rfingers 7.12502
rthumb 7.20419 -53.9234
lclavicle 2.4202e-014 -1.07344e-014
lhumerus -13.1183 -9.68474 87.6123
lradius 22.4175
lwrist 20.6238
lhand -28.6102 -11.4106
lfingers 7.12502
lthumb -1.9752 18.56
rfemur -34.3659 -8.26747 21.2084
rtibia 36.9088
rfoot 16.6202 -4.29908
rtoes 16.444
lfemur -31.6319 11.8516 -18.2723
ltibia 29.5699
lfoot 15.8 -1.81405
ltoes -0.328226
348
root 0.226452 23.4024 -7.03308 8.42245 1.18852 -1.1911
lowerback 7.2167 -1.36757 -3.02831
upperback 3.09957 -1.98134 2.42478
thorax -0.648785 -1.03137 4.35919
lowerneck -12.9182 1.19052 -0.921374
upperneck 30.7457 2.12852 -0.613213
head 12.273 0.750075 0.226244
rclavicle 3.00165e-014 -8.34896e-015
rhumerus -28.1857 -11.5681 -81.3801
rradius 25.6068
rwrist 30.7787
rhand -19.3394 -24.2551
rfingers 7.12502
rthumb 6.97758 -54.1201
lclavicle 3.00165e-014 -8.34896e-015
lhumerus -13.1891 -9.24855 87.7841
lradius 21.8984
lwrist 20.2086
lhand -28.4506 -11.368
lfingers 7.12502
lthumb -1.8211 18.604
rfemur -34.3037 -8.25199 21.1989
rtibia 35.4122
rfoot 16.5293 -4.0666
rtoes 15.4974
lfemur -31.8691 11.8926 -18.2899
ltibia 29.2456
lfoot 15.7789 -1.63009
ltoes -0.906173
349
root 0.224533 23.2998 -6.91499 8.26265 1.29251 -1.27238
lowerback 7.23565 -1.39839 -2.92479
upperback 3.13538 -2.01552 2.45365
thorax -0.621717 -1.04897 4.33296
lowerneck -12.9006 1.18655 -0.817154
upperneck 30.8943 2.11174 -0.659802
head 12.3316 0.747113 0.188544
rclavicle 1.51573e-014 9.54166e-015
rhumerus -28.5164 -11.8987 -81.3575
rradius 25.3943
rwrist 30.822
rhand -19.5973 -24.4614
rfingers 7.12502
rthumb 6.72853 -54.3345
lclavicle 1.51573e-014 9.54166e-015
lhumerus -13.2483 -8.7685 87.9441
lradius 21.3547
lwrist 19.7243
lhand -28.2628 -11.2969
lfingers 7.12502
lthumb -1.63974 18.6765
rfemur -34.1539 -8.20377 21.195
rtibia 33.8767
rfoot 16.5217 -3.8861
rtoes 14.6612
lfemur -32.0301 11.8999 -18.2537
ltibia 28.855
lfoot 15.7634 -1.46038
ltoes -1.50335
350
root 0.223293 23.1845 -6.79224 8.10244 1.38535 -1.38505
lowerback 7.1632 -1.42553 -2.77748
upperback 3.17753 -2.04045 2.48517
thorax -0.540067 -1.06277 4.28072
lowerneck -12.8742 1.17806 -0.711748
upperneck 31.0602 2.08937 -0.709377
head 12.3956 0.741437 0.148585
rclavicle -8.00108e-015 1.39149e-015
rhumerus -28.8185 -12.3302 -81.2926
rradius 25.1588
rwrist 30.8452
rhand -19.834 -24.6382
rfingers 7.12502
rthumb 6.50011 -54.5184
lclavicle -8.00108e-015 1.39149e-015
lhumerus -13.302 -8.24444 88.0906
lradius 20.8081
lwrist 19.1622
lhand -28.0642 -11.1367
lfingers 7.12502
lthumb -1.44789 18.8381
rfemur -33.9273 -8.10542 21.1951
rtibia 32.3393
rfoot 16.618 -3.8002
rtoes 14.0434
lfemur -32.111 11.8857 -18.1648
ltibia 28.3894
lfoot 15.7376 -1.34053
ltoes -2.11658
351
root 0.223071 23.0563 -6.66443 7.92944 1.45576 -1.50487
lowerback 7.01262 -1.44938 -2.60692
upperback 3.2168 -2.05889 2.51053
thorax -0.41998 -1.07364 4.20575
lowerneck -12.8147 1.16393 -0.648355
upperneck 31.2457 2.06156 -0.732561
head 12.4599 0.731925 0.124865
rclavicle 7.95139e-016 -2.78299e-015
rhumerus -29.1141 -12.8041 -81.1967
rradius 24.9077
rwrist 30.8447
rhand -20.048 -24.7976
rfingers 7.12502
rthumb 6.2935 -54.6841
lclavicle 7.95139e-016 -2.78299e-015
lhumerus -13.375 -7.67619 88.2188
lradius 20.2579
lwrist 18.5342
lhand -27.8644 -10.9736
lfingers 7.12502
lthumb -1.25494 19.0025
rfemur -33.6221 -7.9723 21.177
rtibia 30.8398
rfoot 16.8137 -3.80365
rtoes 13.6775
lfemur -32.0881 11.8465 -18.0458
ltibia 27.8392
lfoot 15.7034 -1.29495
ltoes -2.75075
